<?xml version="1.0" standalone="no"?>
<svg xmlns:xlink="http://www.w3.org/1999/xlink" id="wave" style="transform:rotate(180deg); transition: 0.3s" viewBox="0 0 1440 490" version="1.1" xmlns="http://www.w3.org/2000/svg"><defs><linearGradient id="sw-gradient-0" x1="0" x2="0" y1="1" y2="0"><stop stop-color="rgba(42, 82, 163, 1)" offset="0%"/><stop stop-color="rgba(124, 173, 247, 1)" offset="100%"/></linearGradient></defs><path style="transform:translate(0, 0px); opacity:1" fill="url(#sw-gradient-0)" d="M0,98L48,155.2C96,212,192,327,288,359.3C384,392,480,343,576,294C672,245,768,196,864,171.5C960,147,1056,147,1152,187.8C1248,229,1344,310,1440,318.5C1536,327,1632,261,1728,261.3C1824,261,1920,327,2016,326.7C2112,327,2208,261,2304,245C2400,229,2496,261,2592,285.8C2688,310,2784,327,2880,294C2976,261,3072,180,3168,138.8C3264,98,3360,98,3456,98C3552,98,3648,98,3744,130.7C3840,163,3936,229,4032,285.8C4128,343,4224,392,4320,359.3C4416,327,4512,212,4608,212.3C4704,212,4800,327,4896,310.3C4992,294,5088,147,5184,73.5C5280,0,5376,0,5472,73.5C5568,147,5664,294,5760,343C5856,392,5952,343,6048,285.8C6144,229,6240,163,6336,130.7C6432,98,6528,98,6624,130.7C6720,163,6816,229,6864,261.3L6912,294L6912,490L6864,490C6816,490,6720,490,6624,490C6528,490,6432,490,6336,490C6240,490,6144,490,6048,490C5952,490,5856,490,5760,490C5664,490,5568,490,5472,490C5376,490,5280,490,5184,490C5088,490,4992,490,4896,490C4800,490,4704,490,4608,490C4512,490,4416,490,4320,490C4224,490,4128,490,4032,490C3936,490,3840,490,3744,490C3648,490,3552,490,3456,490C3360,490,3264,490,3168,490C3072,490,2976,490,2880,490C2784,490,2688,490,2592,490C2496,490,2400,490,2304,490C2208,490,2112,490,2016,490C1920,490,1824,490,1728,490C1632,490,1536,490,1440,490C1344,490,1248,490,1152,490C1056,490,960,490,864,490C768,490,672,490,576,490C480,490,384,490,288,490C192,490,96,490,48,490L0,490Z"/><defs><linearGradient id="sw-gradient-1" x1="0" x2="0" y1="1" y2="0"><stop stop-color="rgba(42, 82, 163, 1)" offset="0%"/><stop stop-color="rgba(124, 173, 247, 1)" offset="100%"/></linearGradient></defs><path style="transform:translate(0, 50px); opacity:0.9" fill="url(#sw-gradient-1)" d="M0,441L48,424.7C96,408,192,376,288,310.3C384,245,480,147,576,130.7C672,114,768,180,864,212.3C960,245,1056,245,1152,220.5C1248,196,1344,147,1440,106.2C1536,65,1632,33,1728,32.7C1824,33,1920,65,2016,81.7C2112,98,2208,98,2304,155.2C2400,212,2496,327,2592,310.3C2688,294,2784,147,2880,106.2C2976,65,3072,131,3168,130.7C3264,131,3360,65,3456,32.7C3552,0,3648,0,3744,40.8C3840,82,3936,163,4032,220.5C4128,278,4224,310,4320,285.8C4416,261,4512,180,4608,147C4704,114,4800,131,4896,171.5C4992,212,5088,278,5184,302.2C5280,327,5376,310,5472,285.8C5568,261,5664,229,5760,204.2C5856,180,5952,163,6048,204.2C6144,245,6240,343,6336,383.8C6432,425,6528,408,6624,375.7C6720,343,6816,294,6864,269.5L6912,245L6912,490L6864,490C6816,490,6720,490,6624,490C6528,490,6432,490,6336,490C6240,490,6144,490,6048,490C5952,490,5856,490,5760,490C5664,490,5568,490,5472,490C5376,490,5280,490,5184,490C5088,490,4992,490,4896,490C4800,490,4704,490,4608,490C4512,490,4416,490,4320,490C4224,490,4128,490,4032,490C3936,490,3840,490,3744,490C3648,490,3552,490,3456,490C3360,490,3264,490,3168,490C3072,490,2976,490,2880,490C2784,490,2688,490,2592,490C2496,490,2400,490,2304,490C2208,490,2112,490,2016,490C1920,490,1824,490,1728,490C1632,490,1536,490,1440,490C1344,490,1248,490,1152,490C1056,490,960,490,864,490C768,490,672,490,576,490C480,490,384,490,288,490C192,490,96,490,48,490L0,490Z"/><defs><linearGradient id="sw-gradient-2" x1="0" x2="0" y1="1" y2="0"><stop stop-color="rgba(42, 82, 163, 1)" offset="0%"/><stop stop-color="rgba(124, 173, 247, 1)" offset="100%"/></linearGradient></defs><path style="transform:translate(0, 100px); opacity:0.8" fill="url(#sw-gradient-2)" d="M0,245L48,204.2C96,163,192,82,288,106.2C384,131,480,261,576,277.7C672,294,768,196,864,187.8C960,180,1056,261,1152,245C1248,229,1344,114,1440,130.7C1536,147,1632,294,1728,326.7C1824,359,1920,278,2016,245C2112,212,2208,229,2304,228.7C2400,229,2496,212,2592,245C2688,278,2784,359,2880,359.3C2976,359,3072,278,3168,204.2C3264,131,3360,65,3456,81.7C3552,98,3648,196,3744,212.3C3840,229,3936,163,4032,138.8C4128,114,4224,131,4320,138.8C4416,147,4512,147,4608,130.7C4704,114,4800,82,4896,65.3C4992,49,5088,49,5184,57.2C5280,65,5376,82,5472,122.5C5568,163,5664,229,5760,269.5C5856,310,5952,327,6048,302.2C6144,278,6240,212,6336,179.7C6432,147,6528,147,6624,171.5C6720,196,6816,245,6864,269.5L6912,294L6912,490L6864,490C6816,490,6720,490,6624,490C6528,490,6432,490,6336,490C6240,490,6144,490,6048,490C5952,490,5856,490,5760,490C5664,490,5568,490,5472,490C5376,490,5280,490,5184,490C5088,490,4992,490,4896,490C4800,490,4704,490,4608,490C4512,490,4416,490,4320,490C4224,490,4128,490,4032,490C3936,490,3840,490,3744,490C3648,490,3552,490,3456,490C3360,490,3264,490,3168,490C3072,490,2976,490,2880,490C2784,490,2688,490,2592,490C2496,490,2400,490,2304,490C2208,490,2112,490,2016,490C1920,490,1824,490,1728,490C1632,490,1536,490,1440,490C1344,490,1248,490,1152,490C1056,490,960,490,864,490C768,490,672,490,576,490C480,490,384,490,288,490C192,490,96,490,48,490L0,490Z"/></svg>